HIERARCHY
ROOT Hips
{
	OFFSET 0.000000 100.481300 0.000000
	CHANNELS 6 Xposition Yposition Zposition Xrotation Yrotation Zrotation
	JOINT Spine
	{
		OFFSET -0.279200 12.230698 -2.892100
		CHANNELS 3 Xrotation Yrotation Zrotation
		JOINT Spine1
		{
			OFFSET -0.325700 14.269203 -3.374200
			CHANNELS 3 Xrotation Yrotation Zrotation
			JOINT Spine2
			{
				OFFSET -0.372300 16.307602 -0.352600
				CHANNELS 3 Xrotation Yrotation Zrotation
				JOINT Neck
				{
					OFFSET -0.418800 17.814194 8.416900
					CHANNELS 3 Xrotation Yrotation Zrotation
					JOINT Head
					{
						OFFSET 0.000000 7.031097 3.806800
						CHANNELS 3 Xrotation Yrotation Zrotation
						JOINT HeadTop_End
						{
							OFFSET 0.000000 24.646606 12.978600
							CHANNELS 3 Xrotation Yrotation Zrotation
							End Site
							{
								OFFSET 0.000000 27.854965 0.000000
							}
						}
					}
				}
				JOINT LeftShoulder
				{
					OFFSET 16.952999 14.495407 -7.737500
					CHANNELS 3 Xrotation Yrotation Zrotation
					JOINT LeftArm
					{
						OFFSET 9.308998 -2.777710 0.208600
						CHANNELS 3 Xrotation Yrotation Zrotation
						JOINT LeftForeArm
						{
							OFFSET 29.972298 0.000000 0.000000
							CHANNELS 3 Xrotation Yrotation Zrotation
							JOINT LeftHand
							{
								OFFSET 26.026505 0.000000 0.000000
								CHANNELS 3 Xrotation Yrotation Zrotation
								JOINT LeftHandThumb1
								{
									OFFSET 12.240501 -7.147949 9.207150
									CHANNELS 3 Xrotation Yrotation Zrotation
									JOINT LeftHandThumb2
									{
										OFFSET 4.138618 -2.389435 2.389433
										CHANNELS 3 Xrotation Yrotation Zrotation
										JOINT LeftHandThumb3
										{
											OFFSET 2.726913 -1.574387 1.574386
											CHANNELS 3 Xrotation Yrotation Zrotation
											JOINT LeftHandThumb4
											{
												OFFSET 3.941010 -2.275345 2.275342
												CHANNELS 3 Xrotation Yrotation Zrotation
												End Site
												{
													OFFSET -0.005798 5.087799 0.009903
												}
											}
										}
									}
								}
								JOINT LeftHandIndex1
								{
									OFFSET 24.424698 -1.985611 5.953459
									CHANNELS 3 Xrotation Yrotation Zrotation
									JOINT LeftHandIndex2
									{
										OFFSET 6.426697 0.000000 0.000000
										CHANNELS 3 Xrotation Yrotation Zrotation
										JOINT LeftHandIndex3
										{
											OFFSET 5.337898 0.000000 0.000000
											CHANNELS 3 Xrotation Yrotation Zrotation
											JOINT LeftHandIndex4
											{
												OFFSET 4.409401 0.000000 0.000000
												CHANNELS 3 Xrotation Yrotation Zrotation
												End Site
												{
													OFFSET 0.000000 4.409363 0.014373
												}
											}
										}
									}
								}
								JOINT LeftHandMiddle1
								{
									OFFSET 23.810104 0.000000 0.000000
									CHANNELS 3 Xrotation Yrotation Zrotation
									JOINT LeftHandMiddle2
									{
										OFFSET 7.176498 0.000000 0.000000
										CHANNELS 3 Xrotation Yrotation Zrotation
										JOINT LeftHandMiddle3
										{
											OFFSET 6.774902 0.000000 0.000000
											CHANNELS 3 Xrotation Yrotation Zrotation
											JOINT LeftHandMiddle4
											{
												OFFSET 5.403328 0.000000 0.000000
												CHANNELS 3 Xrotation Yrotation Zrotation
												End Site
												{
													OFFSET -0.027702 5.403244 0.017414
												}
											}
										}
									}
								}
								JOINT LeftHandRing1
								{
									OFFSET 22.908401 -0.839279 -6.020567
									CHANNELS 3 Xrotation Yrotation Zrotation
									JOINT LeftHandRing2
									{
										OFFSET 6.337502 0.000000 0.000000
										CHANNELS 3 Xrotation Yrotation Zrotation
										JOINT LeftHandRing3
										{
											OFFSET 5.779297 0.000000 0.000000
											CHANNELS 3 Xrotation Yrotation Zrotation
											JOINT LeftHandRing4
											{
												OFFSET 4.965698 0.000000 0.000000
												CHANNELS 3 Xrotation Yrotation Zrotation
												End Site
												{
													OFFSET 0.000000 4.965668 0.016186
												}
											}
										}
									}
								}
								JOINT LeftHandPinky1
								{
									OFFSET 20.037003 -1.530319 -10.950146
									CHANNELS 3 Xrotation Yrotation Zrotation
									JOINT LeftHandPinky2
									{
										OFFSET 5.254700 0.000000 0.000000
										CHANNELS 3 Xrotation Yrotation Zrotation
										JOINT LeftHandPinky3
										{
											OFFSET 4.810204 0.000000 0.000000
											CHANNELS 3 Xrotation Yrotation Zrotation
											JOINT LeftHandPinky4
											{
												OFFSET 3.647202 0.000000 0.000000
												CHANNELS 3 Xrotation Yrotation Zrotation
												End Site
												{
													OFFSET 0.000000 3.647186 0.011889
												}
											}
										}
									}
								}
							}
						}
					}
				}
				JOINT RightShoulder
				{
					OFFSET -15.141001 14.495407 -7.737500
					CHANNELS 3 Xrotation Yrotation Zrotation
					JOINT RightArm
					{
						OFFSET -9.308998 -2.777710 0.208500
						CHANNELS 3 Xrotation Yrotation Zrotation
						JOINT RightForeArm
						{
							OFFSET -29.972300 0.000000 0.000000
							CHANNELS 3 Xrotation Yrotation Zrotation
							JOINT RightHand
							{
								OFFSET -26.026505 0.000000 0.000000
								CHANNELS 3 Xrotation Yrotation Zrotation
								JOINT RightHandThumb1
								{
									OFFSET -12.240601 -7.148026 9.207092
									CHANNELS 3 Xrotation Yrotation Zrotation
									JOINT RightHandThumb2
									{
										OFFSET -4.138618 -2.389435 2.389433
										CHANNELS 3 Xrotation Yrotation Zrotation
										JOINT RightHandThumb3
										{
											OFFSET -2.726974 -1.574417 1.574421
											CHANNELS 3 Xrotation Yrotation Zrotation
											JOINT RightHandThumb4
											{
												OFFSET -3.941010 -2.275345 2.275343
												CHANNELS 3 Xrotation Yrotation Zrotation
												End Site
												{
													OFFSET 0.005814 5.087799 0.009927
												}
											}
										}
									}
								}
								JOINT RightHandIndex1
								{
									OFFSET -24.424698 -1.985657 5.953444
									CHANNELS 3 Xrotation Yrotation Zrotation
									JOINT RightHandIndex2
									{
										OFFSET -6.426697 0.000000 0.000000
										CHANNELS 3 Xrotation Yrotation Zrotation
										JOINT RightHandIndex3
										{
											OFFSET -5.337898 0.000000 0.000000
											CHANNELS 3 Xrotation Yrotation Zrotation
											JOINT RightHandIndex4
											{
												OFFSET -4.409401 0.000000 0.000000
												CHANNELS 3 Xrotation Yrotation Zrotation
												End Site
												{
													OFFSET 0.000000 4.409363 0.014408
												}
											}
										}
									}
								}
								JOINT RightHandMiddle1
								{
									OFFSET -23.810097 0.000000 0.000000
									CHANNELS 3 Xrotation Yrotation Zrotation
									JOINT RightHandMiddle2
									{
										OFFSET -7.176498 0.000000 0.000000
										CHANNELS 3 Xrotation Yrotation Zrotation
										JOINT RightHandMiddle3
										{
											OFFSET -6.774902 0.000000 0.000000
											CHANNELS 3 Xrotation Yrotation Zrotation
											JOINT RightHandMiddle4
											{
												OFFSET -5.403328 0.000000 0.000000
												CHANNELS 3 Xrotation Yrotation Zrotation
												End Site
												{
													OFFSET 0.027702 5.403244 0.017457
												}
											}
										}
									}
								}
								JOINT RightHandRing1
								{
									OFFSET -22.908302 -0.839325 -6.020576
									CHANNELS 3 Xrotation Yrotation Zrotation
									JOINT RightHandRing2
									{
										OFFSET -6.337502 0.000000 0.000000
										CHANNELS 3 Xrotation Yrotation Zrotation
										JOINT RightHandRing3
										{
											OFFSET -5.779297 0.000000 0.000000
											CHANNELS 3 Xrotation Yrotation Zrotation
											JOINT RightHandRing4
											{
												OFFSET -4.965698 0.000000 0.000000
												CHANNELS 3 Xrotation Yrotation Zrotation
												End Site
												{
													OFFSET 0.000000 4.965668 0.016226
												}
											}
										}
									}
								}
								JOINT RightHandPinky1
								{
									OFFSET -20.037003 -1.530334 -10.950259
									CHANNELS 3 Xrotation Yrotation Zrotation
									JOINT RightHandPinky2
									{
										OFFSET -5.254700 0.000000 0.000000
										CHANNELS 3 Xrotation Yrotation Zrotation
										JOINT RightHandPinky3
										{
											OFFSET -4.810204 0.000000 0.000000
											CHANNELS 3 Xrotation Yrotation Zrotation
											JOINT RightHandPinky4
											{
												OFFSET -3.647202 0.000000 0.000000
												CHANNELS 3 Xrotation Yrotation Zrotation
												End Site
												{
													OFFSET 0.000000 3.647186 0.011917
												}
											}
										}
									}
								}
							}
						}
					}
				}
			}
		}
	}
	JOINT LeftUpLeg
	{
		OFFSET 15.427100 -6.655098 0.678600
		CHANNELS 3 Xrotation Yrotation Zrotation
		JOINT LeftLeg
		{
			OFFSET 4.081073 -39.591068 13.024000
			CHANNELS 3 Xrotation Yrotation Zrotation
			JOINT LeftFoot
			{
				OFFSET -4.081074 -37.707932 -15.979700
				CHANNELS 3 Xrotation Yrotation Zrotation
				JOINT LeftToeBase
				{
					OFFSET 5.346399 -15.068900 20.645000
					CHANNELS 3 Xrotation Yrotation Zrotation
					JOINT LeftToe_End
					{
						OFFSET 2.754700 0.931300 11.300900
						CHANNELS 3 Xrotation Yrotation Zrotation
						End Site
						{
							OFFSET 0.000000 11.669021 0.000000
						}
					}
				}
			}
		}
	}
	JOINT RightUpLeg
	{
		OFFSET -15.569500 -6.655098 0.678600
		CHANNELS 3 Xrotation Yrotation Zrotation
		JOINT RightLeg
		{
			OFFSET -4.081825 -39.591045 13.023800
			CHANNELS 3 Xrotation Yrotation Zrotation
			JOINT RightFoot
			{
				OFFSET 4.081824 -37.707954 -15.979600
				CHANNELS 3 Xrotation Yrotation Zrotation
				JOINT RightToeBase
				{
					OFFSET -5.346400 -15.068900 20.645000
					CHANNELS 3 Xrotation Yrotation Zrotation
					JOINT RightToe_End
					{
						OFFSET -2.754700 0.931300 11.300900
						CHANNELS 3 Xrotation Yrotation Zrotation
						End Site
						{
							OFFSET 0.000000 11.669021 0.000000
						}
					}
				}
			}
		}
	}
}
MOTION
Frames: 4
Frame Time: 0.033333
0.906771 78.905571 -1.143831 -11.457674 -31.853584 -5.090511 13.795509 -4.560639 8.103404 2.017465 -2.342299 0.827158 2.006548 -2.337441 0.867532 13.160826 13.393332 -6.449620 16.976311 9.989557 4.216563 0.000001 0.000002 -0.000000 0.252791 -11.739852 -12.807359 -52.260465 -16.400954 -40.617581 0.000023 -60.458082 0.000014 -132.812769 -1.601208 24.364127 1.567997 0.456391 2.719341 19.473190 -1.474914 7.636924 -4.536202 -9.613084 1.492965 -0.000002 0.000001 -0.000000 -1.882818 2.129429 -39.817011 2.947114 5.081723 -60.200536 0.514382 2.402396 -24.167390 -0.000002 0.000000 0.000002 0.405917 5.507053 -52.453158 3.387149 5.308616 -65.057443 0.282011 1.797448 -17.832383 0.000000 -0.000002 -0.000001 -0.074374 5.736797 -61.061420 4.422107 5.674471 -75.840412 0.582667 2.548982 -25.747984 -0.000001 0.000005 0.000002 2.216811 7.072469 -64.435431 4.422637 5.674622 -75.845761 1.294131 3.673928 -38.798473 -0.000001 0.000000 0.000001 0.505174 5.257283 11.859100 -34.601260 63.980814 57.401552 0.000634 97.080115 -0.000633 -51.295824 -27.738634 -28.920619 8.377125 -4.904139 11.021995 21.620212 -18.183885 -18.379211 -0.702882 -49.821213 -32.535135 0.000002 0.000000 0.000002 -1.101426 1.407141 15.159519 1.422368 -3.352196 45.974106 0.615883 -2.316434 29.773109 0.000000 0.000000 -0.000000 3.413050 -7.186255 51.650239 6.296811 -4.359563 110.634667 0.248695 -1.503057 18.790262 -0.000000 0.000000 -0.000000 -3.349042 -2.600418 57.010564 5.440860 -4.590904 99.698147 1.689410 -3.590698 50.382255 -0.000000 -0.000001 -0.000002 -3.996443 -3.303933 64.593850 4.058853 -4.618663 82.610516 2.315544 -4.026783 59.787228 0.000000 0.000000 0.000004 -25.879537 31.502277 12.008996 72.135185 -6.378332 4.315371 12.474359 3.214026 17.203312 -48.015239 4.488192 -5.927044 0.000000 0.000001 -0.000000 -27.641767 -3.761772 9.630810 52.872791 -6.530937 -11.004779 -15.804153 -0.029322 0.877613 -11.330457 -0.000002 0.000001 0.000001 -0.000002 -0.000001 
0.765769 80.328827 2.639050 -11.554586 -32.358076 -4.818101 13.795374 -4.290796 7.478672 2.042089 -2.312784 0.791856 2.031771 -2.310161 0.832776 13.091827 13.426917 -6.347337 16.843438 10.144016 4.305289 -0.000001 0.000001 -0.000000 0.292948 -11.227657 -12.464262 -52.098125 -16.652793 -41.008586 0.000025 -60.717472 0.000017 -132.865744 -1.827193 24.385647 1.567996 0.456391 2.719340 19.473190 -1.474914 7.636925 -4.536200 -9.613085 1.492965 -0.000001 0.000001 -0.000001 -1.882819 2.129431 -39.817015 2.947114 5.081725 -60.200529 0.514379 2.402396 -24.167392 -0.000001 -0.000000 0.000003 0.405916 5.507053 -52.453162 3.387152 5.308620 -65.057449 0.282014 1.797448 -17.832381 0.000002 0.000000 0.000002 -0.074374 5.736800 -61.061420 4.422104 5.674472 -75.840426 0.582669 2.548982 -25.747979 -0.000001 0.000001 0.000000 2.216811 7.072470 -64.435431 4.422641 5.674619 -75.845761 1.294129 3.673924 -38.798473 -0.000002 0.000003 0.000000 0.509252 5.138454 11.753980 -34.844268 63.781365 57.975889 -0.000290 97.370255 0.000313 -51.109752 -27.739804 -28.916053 8.377125 -4.904140 11.021997 21.620212 -18.183886 -18.379209 -0.702885 -49.821217 -32.535138 0.000000 -0.000000 0.000000 -1.101426 1.407141 15.159518 1.422368 -3.352196 45.974109 0.615883 -2.316434 29.773112 0.000000 0.000000 -0.000000 3.413050 -7.186255 51.650242 6.296812 -4.359563 110.634667 0.248696 -1.503057 18.790264 -0.000000 0.000000 0.000000 -3.349043 -2.600418 57.010561 5.440860 -4.590905 99.698147 1.689410 -3.590697 50.382255 -0.000000 -0.000000 -0.000001 -3.996442 -3.303933 64.593850 4.058853 -4.618663 82.610516 2.315545 -4.026783 59.787234 0.000000 -0.000001 0.000005 -31.772182 29.487815 15.003178 69.198470 -7.021626 4.034924 8.983076 -0.362384 14.408501 -35.846742 2.289799 -4.797337 0.000000 -0.000002 0.000000 -23.780378 -3.434991 7.510256 51.767537 -4.899482 -10.706972 -18.259838 -0.447305 1.368001 -11.262334 -0.000005 -0.000000 0.000000 -0.000003 -0.000001 
0.530688 82.026306 6.160756 -11.523997 -32.763096 -4.330568 13.674928 -4.195863 6.705312 2.076694 -2.324123 0.704803 2.065650 -2.325119 0.745075 13.020593 13.489128 -6.317456 16.672338 10.295186 4.400960 0.000000 0.000001 -0.000001 0.311220 -10.897593 -12.305625 -51.715730 -16.651390 -40.948265 0.000021 -61.898227 0.000021 -132.858490 -2.387476 24.868222 1.567996 0.456390 2.719341 19.473190 -1.474916 7.636928 -4.536204 -9.613087 1.492963 0.000001 0.000003 -0.000002 -1.882818 2.129430 -39.817018 2.947112 5.081727 -60.200529 0.514381 2.402396 -24.167397 0.000001 -0.000001 0.000000 0.405916 5.507053 -52.453162 3.387144 5.308621 -65.057443 0.282016 1.797452 -17.832381 -0.000003 -0.000000 0.000001 -0.074374 5.736798 -61.061420 4.422102 5.674471 -75.840419 0.582669 2.548981 -25.747981 -0.000000 -0.000002 -0.000001 2.216810 7.072470 -64.435431 4.422642 5.674622 -75.845761 1.294132 3.673927 -38.798473 -0.000001 -0.000002 -0.000000 0.513876 5.018240 11.593188 -34.782458 63.546400 58.234364 0.000820 98.115107 -0.000820 -51.097755 -27.728881 -29.161366 8.377125 -4.904139 11.021994 21.620206 -18.183881 -18.379207 -0.702883 -49.821223 -32.535142 -0.000002 0.000000 -0.000001 -1.101426 1.407141 15.159519 1.422368 -3.352196 45.974109 0.615883 -2.316434 29.773112 0.000000 -0.000000 0.000000 3.413050 -7.186254 51.650242 6.296812 -4.359563 110.634667 0.248695 -1.503057 18.790264 -0.000000 -0.000000 -0.000000 -3.349042 -2.600418 57.010558 5.440860 -4.590903 99.698147 1.689410 -3.590698 50.382252 0.000000 0.000000 0.000000 -3.996442 -3.303932 64.593850 4.058851 -4.618662 82.610516 2.315547 -4.026784 59.787234 -0.000000 -0.000000 -0.000000 -35.045492 28.077557 16.445192 62.593206 -7.673399 3.638030 6.993081 -2.880301 11.745321 -23.398580 1.041096 -4.438550 -0.000000 0.000000 -0.000000 -19.912225 -3.182114 5.221945 49.744527 -3.341425 -10.339343 -19.789508 -0.781108 1.956287 -11.196178 0.000004 -0.000001 -0.000001 0.000000 -0.000000 
0.262383 83.892403 9.377602 -11.366193 -33.110404 -3.704865 13.480003 -4.204015 5.875910 2.057875 -2.343047 0.656410 2.045978 -2.344555 0.696731 13.086274 13.512128 -6.446117 16.670668 10.383138 4.414061 -0.000000 0.000001 0.000001 0.308489 -10.801831 -12.357627 -50.836347 -16.053559 -40.412699 0.000068 -64.288957 0.000074 -132.753906 -3.436939 25.890085 1.567997 0.456392 2.719341 19.473192 -1.474912 7.636926 -4.536202 -9.613084 1.492965 0.000001 0.000002 -0.000000 -1.882818 2.129432 -39.817015 2.947111 5.081723 -60.200529 0.514384 2.402397 -24.167392 -0.000000 0.000001 0.000001 0.405917 5.507050 -52.453165 3.387147 5.308617 -65.057443 0.282014 1.797451 -17.832384 -0.000002 -0.000003 0.000002 -0.074374 5.736798 -61.061420 4.422106 5.674473 -75.840412 0.582665 2.548980 -25.747983 -0.000001 -0.000000 0.000001 2.216811 7.072467 -64.435431 4.422636 5.674622 -75.845761 1.294132 3.673928 -38.798470 -0.000001 -0.000000 -0.000000 0.517766 4.928585 11.412176 -33.980679 63.279859 57.786262 0.000239 99.420794 -0.000255 -51.426813 -27.839212 -29.648379 8.377125 -4.904140 11.021993 21.620209 -18.183883 -18.379209 -0.702884 -49.821220 -32.535135 -0.000000 0.000002 0.000001 -1.101426 1.407141 15.159519 1.422367 -3.352196 45.974102 0.615883 -2.316434 29.773116 -0.000000 -0.000000 -0.000000 3.413050 -7.186255 51.650242 6.296812 -4.359563 110.634667 0.248695 -1.503057 18.790264 -0.000001 -0.000000 -0.000000 -3.349043 -2.600418 57.010558 5.440859 -4.590904 99.698154 1.689410 -3.590699 50.382248 -0.000000 0.000000 0.000000 -3.996443 -3.303933 64.593850 4.058853 -4.618664 82.610516 2.315546 -4.026784 59.787228 0.000000 0.000000 0.000003 -36.406530 27.066739 16.870227 52.985616 -8.121331 3.124457 7.938803 -4.301198 9.142345 -12.579590 0.225417 -4.615709 -0.000001 0.000003 -0.000000 -16.214773 -3.025864 2.969487 46.992842 -2.042610 -9.977904 -20.480090 -0.994279 2.648218 -11.325787 -0.000016 -0.000002 -0.000000 -0.000001 -0.000001 
